<svg width="553" height="489" viewBox="0 0 553 489" fill="none" xmlns="http://www.w3.org/2000/svg">
    <path d="M287.017 417.132C424.546 417.132 536.034 330.345 536.034 223.288C536.034 116.232 424.546 29.4449 287.017 29.4449C149.489 29.4449 38 116.232 38 223.288C38 330.345 149.489 417.132 287.017 417.132Z" fill="#E54E4E"/>
    <path fill-rule="evenodd" clip-rule="evenodd" d="M92.3581 146.672C92.3831 146.567 92.2339 146.498 92.1307 146.518C47.9573 154.908 48.599 225.102 59.1072 267.816C73.5714 326.607 146 386.341 201.794 405.997C229.443 415.737 279.65 427.075 306.877 418.874C313.811 416.786 322.539 405.688 322.377 398.235C322.215 390.782 313.204 388.806 306.185 386.911C271.561 377.913 219.961 363.184 197.734 350.8C147.143 322.611 120.348 299.692 96.424 253.276C81.9445 225.184 84.9538 177.787 92.3581 146.672Z" fill="black" fill-opacity="0.05"/>
    <path fill-rule="evenodd" clip-rule="evenodd" d="M508.507 215.859C509.905 218.385 512.844 219.737 515.824 219.223C518.804 218.709 521.167 216.444 521.707 213.584C525.415 193.824 517.496 167.163 503.601 145.852C478.139 106.802 433.557 76.9596 390.226 61.7738C365.686 53.1737 340.244 51.2805 323.816 60.6778C321.341 62.079 319.941 64.744 320.262 67.4422C320.583 70.1412 322.562 72.3487 325.285 73.0458C341.473 77.1091 361.426 80.8643 374.452 88.1553C427.67 117.942 478.138 161.926 508.507 215.859Z" fill="white" fill-opacity="0.13"/>
    <path fill-rule="evenodd" clip-rule="evenodd" d="M293.785 0L311.627 53.3933H369.367L322.654 86.3924L340.497 139.786L293.785 106.787L247.072 139.786L264.915 86.3924L218.202 53.3933H275.942L293.785 0Z" fill="#256109" fill-opacity="0.99"/>
    <path fill-rule="evenodd" clip-rule="evenodd" d="M334.987 35.1512L316.745 71.3827L343.388 98.0368L305.471 93.7751L287.229 130.007L282.037 91.141L244.12 86.8794L278.828 67.121L273.636 28.2554L300.279 54.9095L334.987 35.1512Z" fill="#257609" fill-opacity="0.99"/>
</svg>
